<?xml version="1.0" encoding="iso-8859-1"?>
<!-- Generator: Adobe Illustrator 19.0.0, SVG Export Plug-In . SVG Version: 6.00 Build 0)  -->
<svg version="1.1" id="Layer_1" xmlns="http://www.w3.org/2000/svg" xmlns:xlink="http://www.w3.org/1999/xlink" x="0px" y="0px"
	 viewBox="0 0 512 512" style="enable-background:new 0 0 512 512;" xml:space="preserve">
<g>
	<g>
		<rect x="347.897" y="354.462" width="157.538" height="157.538"/>
	</g>
</g>
<g>
	<g>
		<g>
			<path d="M100.473,232.396c1.217-3.089,2.472-6.161,3.762-9.216h-0.009C102.936,226.233,101.688,229.306,100.473,232.396z"/>
			<path d="M130.577,171.601c-0.964,1.589-1.917,3.186-2.859,4.79C128.66,174.787,129.613,173.19,130.577,171.601z"/>
			<path d="M131.109,170.737c-0.176,0.289-0.357,0.574-0.532,0.864C130.752,171.311,130.933,171.026,131.109,170.737z"/>
			<path d="M139.523,157.538h50.836v39.385h-73.911c-4.38,8.584-8.451,17.345-12.214,26.256h112.381v39.385H89.939
				c-11.582,37.91-17.734,77.8-17.734,118.154c0,46.383,8.922,90.678,25.122,131.282h211.186V315.077h118.154V0
				C302.672,0,201.566,64.46,139.523,157.538z"/>
			<path d="M131.109,170.737c2.72-4.458,5.522-8.861,8.414-13.198h-0.004C136.627,161.875,133.828,166.279,131.109,170.737z"/>
		</g>
	</g>
</g>
<g>
	<g>
		<path d="M96.286,243.514c-0.986,2.737-1.942,5.485-2.87,8.245C94.343,248.999,95.3,246.251,96.286,243.514z"/>
	</g>
</g>
<g>
	<g>
		<path d="M92.979,253.049c-1.045,3.142-2.056,6.298-3.026,9.468C90.923,259.346,91.934,256.19,92.979,253.049z"/>
	</g>
</g>
<g>
	<g>
		<path d="M126.955,177.705c-1.553,2.668-3.076,5.355-4.567,8.061C123.88,183.06,125.402,180.372,126.955,177.705z"/>
	</g>
</g>
<g>
	<g>
		<path d="M99.933,233.784c-1.045,2.683-2.061,5.377-3.051,8.086C97.871,239.162,98.89,236.468,99.933,233.784z"/>
	</g>
</g>
<g>
	<g>
		<path d="M116.504,196.819c1.592-3.117,3.234-6.204,4.905-9.274C119.736,190.615,118.095,193.704,116.504,196.819z"/>
	</g>
</g>
<g>
	<g>
		<path d="M6.564,157.538v39.385h109.884c6.941-13.598,14.648-26.751,23.07-39.385H6.564z"/>
	</g>
</g>
<g>
	<g>
		<path d="M32.82,223.18v39.385h57.118c4.093-13.399,8.864-26.549,14.289-39.385H32.82z"/>
	</g>
</g>
<g>
</g>
<g>
</g>
<g>
</g>
<g>
</g>
<g>
</g>
<g>
</g>
<g>
</g>
<g>
</g>
<g>
</g>
<g>
</g>
<g>
</g>
<g>
</g>
<g>
</g>
<g>
</g>
<g>
</g>
</svg>
